<svg xmlns="http://www.w3.org/2000/svg" viewBox="0 0 277.89 483.3"><defs><style>.cls-1{fill:#f7b38e;}.cls-2{fill:#ededed;}.cls-3{fill:#293754;}.cls-4{fill:#1d1d1b;}.cls-5{fill:#fff;}.cls-6{fill:#c55844;}.cls-7{fill:#936037;}.cls-8{fill:#f6f6f6;}.cls-9{fill:#29235c;}.cls-10{fill:#9b102d;}.cls-11{fill:#eee9d0;}.cls-12{fill:#4c2a18;}.cls-13{fill:#ea8080;}.cls-14{fill:#3c3c3b;}.cls-15{fill:#76773d;}.cls-16{fill:none;stroke:#1d1d1b;stroke-miterlimit:10;stroke-width:0.2px;}.cls-17{fill:#b2b2b2;}</style></defs><g id="Nico"><path class="cls-1" d="M144.76,598.17c0,1.32-1.65,18.86-1.65,18.86l15.55.66,2-22.83Z" transform="translate(-103.31 -146.28)"/><polygon class="cls-1" points="85.12 451.89 85.45 472.4 101.33 471.08 101.66 448.58 85.12 451.89"/><path class="cls-2" d="M189.55,612c-.48.46-6.28,16.26,2.29,16.79l21.27.34c9.1.15,19.69,1.84,28-2.45,1-.53,2.12-1.31,2.17-2.42a3.28,3.28,0,0,0-1.61-2.45c-6.39-4.9-13.77-4.28-21.42-4.92a84,84,0,0,1-10.62-1.36c-1.6-.34-4.31-2.13-5.56-2.24Z" transform="translate(-103.31 -146.28)"/><path class="cls-2" d="M158.13,612c.47.46,6.17,16.26-2.26,16.79l-39.44.65c-2.6,0-7.92-1.34-9.72-3.17-5.84-5.91,10.88-8.73,14.41-8.92,4.6-.25,9.22-.56,13.78-1.23a29.38,29.38,0,0,0,5.9-1.18c.67-.24,2.56-1.61,3-1.65Z" transform="translate(-103.31 -146.28)"/><ellipse class="cls-1" cx="69.74" cy="55.67" rx="42.93" ry="53.47"/><polygon class="cls-1" points="85.08 126.44 52.87 126.44 56.4 96.29 81.54 96.29 85.08 126.44"/><ellipse class="cls-1" cx="112.64" cy="56.8" rx="6.11" ry="13.88"/><ellipse class="cls-1" cx="25.66" cy="57.03" rx="6.11" ry="13.66"/><path class="cls-1" d="M103.59,443.26c1.11,8.79,5.21,15.63,9.17,15.27s6.26-7.78,5.15-16.57-5.21-15.63-9.17-15.27-6.26,7.78-5.15,16.57" transform="translate(-103.31 -146.28)"/><path class="cls-1" d="M119.92,441.8c1.43,5.15,2.53,9.43,1.09,9.72s-4.85-3.54-6.27-8.69-2.67-11.54-1.24-11.83S118.5,436.65,119.92,441.8Z" transform="translate(-103.31 -146.28)"/><path class="cls-1" d="M244.7,445.62c-1.11,8.79-5.22,15.63-9.17,15.27s-6.26-7.78-5.15-16.57,5.21-15.63,9.17-15.27,6.26,7.78,5.15,16.57" transform="translate(-103.31 -146.28)"/><path class="cls-1" d="M228.36,444.16c-1.42,5.15-2.52,9.43-1.09,9.71s4.86-3.53,6.28-8.68,2.67-11.55,1.24-11.83S229.79,439,228.36,444.16Z" transform="translate(-103.31 -146.28)"/><path class="cls-3" d="M140.22,602.6h22.3c1-15.31,2.56-30.61,3.24-45.93.52-11.72-.36-23.43-.89-35.14s.69-23,1.55-34.67c.32-4.38,4.07-62,3.77-62h6.95c.53,15.11,1,30.23,1.73,45.34q.54,11.34,1.3,22.67c.27,4-.55,8.09,0,12.1s1.1,8.07,1.52,12.12c.86,8.26,1.38,16.54,1.71,24.82s.48,16.63.57,25,.12,16.6.24,24.91c0,3.38.11,6.77.2,10.16,0,.22,0,.44,0,.66V602h23q1.14-39.42,2.24-78.84c1-37.46,4.36-75.13,8.25-112.47.28-2.74.49-5.52,1-8.25l-90.33,1.42c1.6,25.92,3.24,51.84,5.16,77.74,2.51,34,4.1,67.92,5.57,101.95Z" transform="translate(-103.31 -146.28)"/><path class="cls-1" d="M210,409s4.34-78,7.17-82.06c0,0,23.29,75.87,16.43,107.11l10.2-.36c-1.08-24.43,2.85-49.86,1.77-74.3-.63-14.4-4.27-28.81-4.9-43.22-.48-11,0-26.09-9.23-35.18-10.64-10.53-16.09-16.74-31.9-18.24,0,0-21.63,7-25.72,7,0,0-20.7-3.11-26.7-6.23-2.54-1.31-14.55,3.8-17.78,5.11-8.56,3.48-18.16,8.86-20.2,17.33-1.4,5.87-.46,13-.71,19-.31,7.58-1.62,15.16-1.92,22.73-1.32,32.39-.64,64.78-2,97.17l-.37,9.19h9.93c.2-9,2.41-18.05,2.61-27.07.39-16.81,3.19-33.41,6.53-50.07,1.21-6.07,2.44-12.13,3.76-18.18.76-3.44.91-8.29,2.94-11.42,0,0-1.61,81.48-2.91,82.59" transform="translate(-103.31 -146.28)"/><ellipse class="cls-4" cx="51.62" cy="58.24" rx="5.39" ry="5.19"/><ellipse class="cls-5" cx="48.88" cy="55.87" rx="1.29" ry="1.24"/><ellipse class="cls-4" cx="85.91" cy="58.24" rx="5.39" ry="5.19"/><ellipse class="cls-5" cx="83.17" cy="55.87" rx="1.29" ry="1.24"/><path class="cls-6" d="M164.64,235.16c2,3.06,7.85,10.07,14.74,0a.13.13,0,0,0-.19-.17c-2.82,1.72-7.64,4.34-14.22-.08C164.77,234.77,164.51,235,164.64,235.16Z" transform="translate(-103.31 -146.28)"/><path class="cls-7" d="M179.78,157.94c1.38,1.7-23.91,1.71-27,2.52,0,0-20.79,3.87-20.19,16.9.05.51-3.13,27.19-.89,31.07.43.74,3.8-16.72,12.45-27.73,1.15-1.47,3.22-1.08,5.07-.5,12.52,4,24,8,44.31.2,1.84-.71,4-1.14,5.33.25,3.56,3.68,9.33,2.13,11.14,19.3a42.18,42.18,0,0,0,2,7.9,1.46,1.46,0,0,0,2.55.22h0a1.32,1.32,0,0,0,.24-.66c.44-4.41,8-31.76-3.26-44.57" transform="translate(-103.31 -146.28)"/><path class="cls-8" d="M147.28,263.69c3.89,3.93,23.52,21.07,50.91-.85a2.43,2.43,0,0,1,1.87-.52c6.88,1,45,7.7,43.55,35.38,0,0-.63,26.35,0,28.23l-25.13,10.55-1.85-9.56s2.49,83.13,3.56,83l-94,.29s3.44-74.68,3.49-81c0-.19,0-.32,0-.38-.16-2.12-2.19,5.79-2.19,6.47l-23.68-3,1.77-46.7s4.06-18,39.91-22.51A2.16,2.16,0,0,1,147.28,263.69Z" transform="translate(-103.31 -146.28)"/><path class="cls-7" d="M158.9,194.08c-2.58-1.83-9.75-5.66-14.19,4-.05.12.12.17.22.08,2.34-2.1,6.41-5.42,13.71-3.79C158.86,194.41,159.07,194.2,158.9,194.08Z" transform="translate(-103.31 -146.28)"/><path class="cls-7" d="M184.77,194.08c2.58-1.83,9.74-5.66,14.18,4,.05.12-.11.17-.22.08-2.33-2.1-6.41-5.42-13.7-3.79C184.8,194.41,184.59,194.2,184.77,194.08Z" transform="translate(-103.31 -146.28)"/><ellipse class="cls-7" cx="132.92" cy="174.62" rx="12.47" ry="6.46" transform="translate(-177.21 101.73) rotate(-72.26)"/><ellipse class="cls-7" cx="27.29" cy="49.68" rx="3.47" ry="12.47"/><ellipse class="cls-7" cx="146.33" cy="158.72" rx="12.47" ry="6.46" transform="translate(-171.45 -12.17) rotate(-40.78)"/><ellipse class="cls-7" cx="169.5" cy="158.49" rx="23.51" ry="6.46" transform="translate(-115.69 -131.91) rotate(-4.68)"/><ellipse class="cls-7" cx="165.16" cy="153.09" rx="12.47" ry="6.46" transform="translate(-130.46 -110.38) rotate(-11.47)"/><ellipse class="cls-7" cx="183.08" cy="154.64" rx="6.46" ry="12.47" transform="translate(-131.36 121.75) rotate(-68.42)"/><ellipse class="cls-7" cx="199.95" cy="158.88" rx="6.46" ry="12.47" transform="translate(-124.64 140.11) rotate(-68.42)"/><ellipse class="cls-7" cx="212.99" cy="174.44" rx="6.46" ry="12.47" transform="translate(-152.42 -56.12) rotate(-21.49)"/><ellipse class="cls-7" cx="112.15" cy="41.37" rx="4.96" ry="12.47"/><path class="cls-9" d="M204.63,615.05l2.64,1.16,1.23,6.59,2.23-5.07,2.67,1.17-4,9.18-2.67-1.18-1.22-6.54-2.22,5-2.66-1.17Z" transform="translate(-103.31 -146.28)"/><path class="cls-9" d="M146.15,615.09l-2.86.7-2.44,6.29-1.3-5.39-2.9.7,2.36,9.74,2.89-.7,2.43-6.25,1.29,5.35,2.89-.7Z" transform="translate(-103.31 -146.28)"/><path class="cls-3" d="M103.83,332.28l23.68,3,.53-2.19s-23.38-2.24-24-3Z" transform="translate(-103.31 -146.28)"/><path class="cls-3" d="M218.12,334.67l.36,1.81,25.13-10.55-.21-2.12S221.14,333.68,218.12,334.67Z" transform="translate(-103.31 -146.28)"/><polygon class="cls-3" points="22.95 260.11 23.34 256.41 116.18 256.41 116.32 259.96 22.95 260.11"/><polygon class="cls-10" points="23.41 253.29 23.56 249.53 115.81 249.46 115.99 253.08 23.41 253.29"/><polygon class="cls-10" points="23.97 238.96 24.13 235.21 115.23 235.13 115.41 238.75 23.97 238.96"/><polygon class="cls-10" points="24.68 224.25 24.83 220.5 114.84 220.42 115.01 224.04 24.68 224.25"/><polygon class="cls-10" points="25.39 209.11 25.54 205.36 114.13 205.28 114.3 208.91 25.39 209.11"/><polygon class="cls-10" points="26.09 193.83 26.24 190.08 113.57 190 113.74 193.63 26.09 193.83"/><polygon class="cls-10" points="26.09 178.22 26.24 174.46 113 174.38 113.16 178.01 26.09 178.22"/><polygon class="cls-10" points="25.87 164 26.02 160.25 112.77 160.17 112.94 163.79 25.87 164"/><polygon class="cls-3" points="23.79 245.97 23.95 242.22 115.5 242.14 115.68 245.76 23.79 245.97"/><polygon class="cls-3" points="24.34 231.48 24.5 227.73 114.96 227.65 115.13 231.27 24.34 231.48"/><polygon class="cls-3" points="25.05 217.05 25.2 213.3 114.42 213.22 114.59 216.84 25.05 217.05"/><polygon class="cls-3" points="25.62 201.35 25.77 197.6 113.99 197.52 114.16 201.14 25.62 201.35"/><polygon class="cls-3" points="26.35 186.03 26.5 182.28 113.36 182.2 113.53 185.82 26.35 186.03"/><polygon class="cls-3" points="26.13 171.23 26.28 167.48 113.14 167.4 113.31 171.03 26.13 171.23"/><polygon class="cls-3" points="25.9 156.57 26.05 152.81 112.91 152.74 113.08 156.36 25.9 156.57"/><polygon class="cls-10" points="25.87 149.33 26.02 145.58 112.77 145.5 112.94 149.13 25.87 149.33"/><polygon class="cls-10" points="25.64 135.12 25.79 131.37 112.55 131.29 112.71 134.91 25.64 135.12"/><polygon class="cls-3" points="25.9 142.35 26.05 138.6 112.91 138.52 113.08 142.15 25.9 142.35"/><polygon class="cls-3" points="25.68 127.69 25.72 123.93 52.11 123.86 57.16 127.37 25.68 127.69"/><polygon class="cls-3" points="113.69 182.19 114.3 185.69 140.03 175.14 139.9 171.66 113.69 182.19"/><polygon class="cls-10" points="113.16 178.01 139.98 167.62 140.01 163.64 112.89 174.43 113.16 178.01"/><polygon class="cls-3" points="113.31 171.03 140.24 160.57 140.27 156.59 113.15 167.38 113.31 171.03"/><polygon class="cls-3" points="113.07 156.38 140 145.93 139.25 142.28 112.91 152.74 113.07 156.38"/><polygon class="cls-3" points="113.07 142.18 134.69 133.79 132.07 130.92 112.91 138.53 113.07 142.18"/><polygon class="cls-3" points="112.82 127.58 121.97 123.85 118.07 121.84 112.66 123.93 112.82 127.58"/><polygon class="cls-10" points="112.94 163.79 140.33 153.57 140.37 149.59 112.77 160.17 112.94 163.79"/><polygon class="cls-10" points="112.85 149.07 138.29 139.6 136.53 136.37 112.69 145.44 112.85 149.07"/><polygon class="cls-10" points="112.75 134.88 129.39 128.67 125.81 126.29 112.58 131.25 112.75 134.88"/><polygon class="cls-3" points="112.74 127.58 112.69 123.83 83.3 123.75 77.68 127.27 112.74 127.58"/><polygon class="cls-10" points="115.26 120.8 103.79 117.33 95.4 117.25 92.19 120.77 115.26 120.8"/><polygon class="cls-10" points="22.46 121.34 33.99 118.12 42.59 118.16 45.87 121.68 22.46 121.34"/><path class="cls-3" d="M143.5,263.29s24.31,28.09,58.35-.71c0,0-2.64-.82-3.73.24,0,0-26.48,23.32-50.84.87C147.28,263.69,146.51,262.13,143.5,263.29Z" transform="translate(-103.31 -146.28)"/><polygon class="cls-3" points="25.86 182.55 25.07 185.6 0.83 180.29 0.9 176.85 25.86 182.55"/><polygon class="cls-10" points="26.09 178.22 1.08 171.9 1.15 168.22 26.24 174.46 26.09 178.22"/><polygon class="cls-3" points="26.13 171.23 1.37 164.41 1.41 161.06 26.34 167.49 26.13 171.23"/><polygon class="cls-3" points="25.9 156.57 1.96 149.2 2.11 145.15 26.05 152.81 25.9 156.57"/><polygon class="cls-3" points="25.9 142.35 4.9 134.21 7.19 131.24 26.05 138.6 25.9 142.35"/><polygon class="cls-3" points="25.68 127.69 17.26 124.07 20.68 122.23 25.72 123.93 25.68 127.69"/><polygon class="cls-10" points="25.87 164 1.6 157.03 1.76 153.68 26.02 160.25 25.87 164"/><polygon class="cls-10" points="25.87 149.33 2.2 140.52 3.2 136.89 26.02 145.58 25.87 149.33"/><polygon class="cls-10" points="25.64 135.12 9.85 128.89 13.03 126.35 25.79 131.37 25.64 135.12"/></g><g id="Alina"><ellipse class="cls-11" cx="363.72" cy="237.44" rx="18.05" ry="12.72" transform="translate(-16.38 425.91) rotate(-83.55)"/><ellipse class="cls-12" cx="368.4" cy="231.79" rx="18.05" ry="12.72" transform="translate(-6.61 425.54) rotate(-83.55)"/><ellipse class="cls-12" cx="365.3" cy="261.55" rx="18.05" ry="12.72" transform="translate(-38.94 448.88) rotate(-83.55)"/><ellipse class="cls-12" cx="350" cy="285.78" rx="18.05" ry="12.72" transform="translate(-76.6 455.19) rotate(-83.55)"/><ellipse class="cls-12" cx="332.01" cy="292.62" rx="18.05" ry="12.72" transform="translate(-99.36 443.37) rotate(-83.55)"/><ellipse class="cls-12" cx="352.1" cy="304.11" rx="18.05" ry="12.72" transform="translate(-92.94 473.54) rotate(-83.55)"/><ellipse class="cls-12" cx="364.4" cy="287.02" rx="18.05" ry="12.72" transform="translate(-65.05 470.6) rotate(-83.55)"/><ellipse class="cls-12" cx="358.7" cy="310.63" rx="18.05" ry="12.72" transform="translate(-93.57 485.89) rotate(-83.55)"/><ellipse class="cls-12" cx="349.53" cy="263.64" rx="18.05" ry="12.72" transform="translate(-55.01 435.06) rotate(-83.55)"/><ellipse class="cls-11" cx="268.06" cy="244.4" rx="12.76" ry="17.98" transform="translate(-168.64 -44.86) rotate(-19.14)"/><ellipse class="cls-12" cx="265.2" cy="244.4" rx="12.76" ry="17.98" transform="translate(-168.8 -45.8) rotate(-19.14)"/><ellipse class="cls-12" cx="268.97" cy="262.31" rx="12.76" ry="17.98" transform="translate(-174.46 -43.57) rotate(-19.14)"/><ellipse class="cls-12" cx="270.77" cy="286.53" rx="12.76" ry="17.98" transform="translate(-182.3 -41.64) rotate(-19.14)"/><ellipse class="cls-12" cx="283.06" cy="288.71" rx="12.76" ry="17.98" transform="translate(-182.34 -37.49) rotate(-19.14)"/><ellipse class="cls-12" cx="297.46" cy="293.06" rx="12.76" ry="17.98" transform="translate(-182.97 -32.52) rotate(-19.14)"/><ellipse class="cls-12" cx="274.06" cy="306.72" rx="12.76" ry="17.98" transform="translate(-188.74 -39.44) rotate(-19.14)"/><ellipse class="cls-12" cx="287.8" cy="263.53" rx="12.76" ry="17.98" transform="translate(-173.82 -37.32) rotate(-19.14)"/><ellipse class="cls-1" cx="214.01" cy="86.04" rx="44.21" ry="51.17"/><polygon class="cls-1" points="225.32 161.76 197.97 161.76 200.97 130.54 222.32 130.54 225.32 161.76"/><ellipse class="cls-12" cx="211.08" cy="43.08" rx="21.88" ry="13.17"/><ellipse class="cls-12" cx="342.3" cy="193.16" rx="13.12" ry="17.49" transform="translate(-53.33 309.61) rotate(-71.39)"/><ellipse class="cls-12" cx="285.95" cy="198.57" rx="17.64" ry="13.01" transform="translate(-165.29 64.28) rotate(-36.75)"/><path class="cls-12" d="M281.56,200.16c5.81,4.07,3.56,9.59-1.83,17.85S267.85,234.15,262,230.08s-6.17-14.07-.78-22.33S275.74,196.09,281.56,200.16Z" transform="translate(-103.31 -146.28)"/><ellipse class="cls-1" cx="170.05" cy="87.45" rx="5.88" ry="12.19"/><ellipse class="cls-12" cx="276.39" cy="215.74" rx="17.96" ry="8.25" transform="translate(-157.63 185.94) rotate(-57.38)"/><ellipse class="cls-12" cx="292.32" cy="205.05" rx="12.91" ry="8.25" transform="translate(-139.39 198.95) rotate(-58.16)"/><ellipse class="cls-12" cx="298.88" cy="205.13" rx="32.84" ry="10.84" transform="translate(-137.21 -84.91) rotate(-11.1)"/><path class="cls-12" d="M352.45,196.17c-5.82,4.07-3.57,9.59,1.82,17.85s11.88,16.14,17.7,12.07,6.16-14.07.77-22.33S358.26,192.1,352.45,196.17Z" transform="translate(-103.31 -146.28)"/><ellipse class="cls-1" cx="258.05" cy="87.45" rx="5.88" ry="12.19"/><ellipse class="cls-4" cx="197.19" cy="84.12" rx="5.19" ry="5.37"/><ellipse class="cls-5" cx="194.55" cy="81.66" rx="1.24" ry="1.28"/><ellipse class="cls-4" cx="227.19" cy="84.12" rx="5.19" ry="5.37"/><ellipse class="cls-5" cx="224.55" cy="81.66" rx="1.24" ry="1.28"/><path class="cls-13" d="M306.22,259.57l21.58-.11S319.11,271.38,306.22,259.57Z" transform="translate(-103.31 -146.28)"/><path class="cls-1" d="M361.73,343.84c-.13-2.25-.23-4.51-.29-6.76-.25-8.71-.14-20.39-7.43-26.81-8.72-7.67-22.94-7.62-34-7-7.6.43-15.34.49-22.92,1.31s-15.92,2.07-22.24,6.34c-5.89,4-5.31,10.61-5.72,16.81q-.37,5.4-.77,10.78l-2.14,30.09-4.46,62.77-1.08,15.09a58.56,58.56,0,0,0,6.25,0c.87-.18,1.68-6.18,1.84-6.87,1.2-5.39,2.29-10.8,3.38-16.22,5.32-26.39,9.26-58.58,13-85.21a4.56,4.56,0,0,1,.44-1.47c3.81,5.62,4.58,19,4.88,25.46a75.93,75.93,0,0,1-1.08,15.56c-1,5.89-3.54,11.58-4.78,17.45-1.3,6.15-2.27,12.37-3.09,18.6-.93,7.12-.89,4.26-1.34,11.43l69-4.33c2.35-7.6.9-3-.36-10.57-2.34-14.08-5.13-28.45-7.48-42.57-1.4-8.42,2.22-23.66,4.49-32-.64,6.23,1.4,20.58,2.19,25.93,3.79,25.78,8.5,51.13,13.74,76.67l1.27,6.19,6.77-1.28c-1.56-19.74-3.07-39.48-4.66-59.21-.68-8.5-1.48-17-2.27-25.48C362.41,353.79,362,348.82,361.73,343.84Z" transform="translate(-103.31 -146.28)"/><ellipse class="cls-1" cx="264.43" cy="445.08" rx="14.64" ry="5.4" transform="translate(-308.55 516.59) rotate(-84.16)"/><path class="cls-1" d="M271.65,443.19c.35,3.82.6,7-.28,7.08s-2.52-2.95-2.87-6.77-.48-8.52.39-8.61S271.3,439.37,271.65,443.19Z" transform="translate(-103.31 -146.28)"/><ellipse class="cls-1" cx="366.39" cy="445.08" rx="5.4" ry="14.64" transform="translate(-146.68 -106.71) rotate(-5.84)"/><path class="cls-1" d="M359.16,443.19c-.35,3.82-.59,7,.28,7.08s2.53-2.95,2.88-6.77.48-8.52-.39-8.61S359.51,439.37,359.16,443.19Z" transform="translate(-103.31 -146.28)"/><path class="cls-1" d="M281.31,427.64c-.1,7.58.19,15.2.77,22.76,1.22,15.67,5.43,31,7.33,46.65,1,8.39,2.34,16.77,2.6,25.24.34,10.93-1,22-1.15,32.92-.11,9.1.26,18.2,1,27.26.64,7.74.77,16.51,2.7,24,.68,2.64,8.18,1.55,8.53,1.49,1.5-.22,3.49-28.77,3.73-31.21,1.29-13.41.87-26.91.61-40.37-.13-6.77,2.43-88.47,3.84-88.47l8.8-1.21c1,21.83,1.69,48,2.78,69.79.42,8.5,1.2,17,1.56,25.47.57,13.23-.42,26.43.94,39.62l-.53-2.86c1.78,10.31,2.1,20.78,3.16,31.19,0,0,8,.89,8-1.33,0-14.59,2.7-27,3.53-41.58,1.42-24.84.35-49.31,3.9-74,.73-5.12,8.31-65.52,6.69-65.51Z" transform="translate(-103.31 -146.28)"/><path class="cls-1" d="M294.74,602.75c0,.42,10.63,0,10.63,0s.17,9.3.17,11.83-10.11,1-10.11,1Z" transform="translate(-103.31 -146.28)"/><path class="cls-1" d="M334.88,603.56c0,.42-10.93.48-10.93.48s.21,9.3.31,11.83,10.43.53,10.43.53Z" transform="translate(-103.31 -146.28)"/><path class="cls-10" d="M260.67,456" transform="translate(-103.31 -146.28)"/><path class="cls-14" d="M281.31,425.73c-.1,7.66.19,15.36.77,23,1.22,15.83,5.43,31.36,7.33,47.14,1,8.48,2.34,16.94,2.6,25.5.34,11-1,22.19-1.15,33.26-.11,9.2.26,18.39,1,27.54.64,7.82.77,16.68,2.7,24.28.68,2.66,11.18,1.56,11.53,1.51,1.5-.23,3.49-29.07,3.73-31.54,1.29-13.55.87-27.2.61-40.79-.13-6.85,3.23-86.26,4.64-86.26h1.84c.95,22.06,1.85,44.11,2.94,66.16.42,8.59,1.2,17.14,1.56,25.73.57,13.37-2.42,26.71-1.06,40-.18-1,1.57,18.11,2.63,28.62,0,0,13,2,13-.3,0-14.74,2.7-28.35,3.53-43,1.42-25.1.35-49.83,3.9-74.78.73-5.17,8.31-66.2,6.69-66.19Z" transform="translate(-103.31 -146.28)"/><path class="cls-15" d="M282.69,357.64s-.05.78,2.57-16.38a3.85,3.85,0,0,1,.43-1.37c3.81,5.24,3.27,12.41,3.58,18.41.24,4.63,1,9.86.16,14.44-1,5.49-3.54,10.8-4.78,16.27-1.31,5.74-2.28,11.54-3.09,17.35-.94,6.64-1.71,13.32-2.16,20h70.76c2.35-7.08-.05-16.17-1.31-23.24-2.34-13.13-7.84-26.34-7.49-39.7a94.5,94.5,0,0,1,3.78-23.9c-.64,5.81,1.33,12.48,2.2,18.2a94.94,94.94,0,0,0,15.56-2.82s-.86-9.16-1.14-13.8q-.18-3.17-.29-6.31c-.25-8.12-.13-19-7.43-25-6.54-5.36-12.85-6.59-21.92-6.66-.47,3.87-4.76,11.17-7.44,11.83-4.54,3.28-14.48,3.11-18.61-.12s-7.7-10.46-8.95-10.34c-7.46.75-15.93,1.93-22.24,5.92-5.9,3.72-5.31,9.89-5.73,15.67-.24,3.35-.51,6.7-.77,10.05-.71,9.35-1.62,21.31-1.62,21.31" transform="translate(-103.31 -146.28)"/><ellipse class="cls-12" cx="349.41" cy="206.99" rx="10.74" ry="25.91" transform="translate(-119.64 237.26) rotate(-56.41)"/><path class="cls-4" d="M360.47,432.3l.21.95,8.22-1.12-.08-.92S361.2,432.44,360.47,432.3Z" transform="translate(-103.31 -146.28)"/><path class="cls-14" d="M292.34,615.38c-.19-.6,10.41.51,13.36.45a.67.67,0,0,1,.74.6c0,2.22,0,8.66-.33,10.76a.9.9,0,0,1-.89.71c-4.3.2-27.57,1.28-31.66,1.12a1.31,1.31,0,0,1-.82-.3c-.94-.81-3.35-3.24.54-4.45,0,0,12.16-1.89,13.49-2.74,0,0,1.2-1,2.5-2.21C290.84,617.84,292.55,616.05,292.34,615.38Z" transform="translate(-103.31 -146.28)"/><path class="cls-2" d="M292.4,614.34c-.18-.6,10.44.51,13.4.45a.67.67,0,0,1,.75.61c0,2.22,0,8.65-.33,10.76a.9.9,0,0,1-.89.7c-4.31.2-27.66,1.28-31.76,1.13a1.35,1.35,0,0,1-.82-.31c-.95-.8-3.36-3.24.54-4.45,0,0,12.19-1.88,13.53-2.74,0,0,1.21-1,2.5-2.21C290.9,616.81,292.61,615,292.4,614.34Z" transform="translate(-103.31 -146.28)"/><ellipse class="cls-16" cx="185.56" cy="473.84" rx="0.69" ry="0.64"/><ellipse class="cls-16" cx="186.85" cy="472.59" rx="0.69" ry="0.64"/><ellipse class="cls-16" cx="188.15" cy="471.23" rx="0.69" ry="0.64"/><path class="cls-4" d="M277.85,628h-.24c.19-3.76-2.23-5.05-2.25-5.06l.26,0C275.73,622.91,278.05,624.06,277.85,628Z" transform="translate(-103.31 -146.28)"/><path class="cls-14" d="M338.88,615.38c.2-.6-10.93.51-14,.45a.7.7,0,0,0-.78.6c0,2.22,0,8.66.35,10.76a.93.93,0,0,0,.93.71c4.51.2,29,1.28,33.26,1.12a1.4,1.4,0,0,0,.86-.3c1-.81,3.51-3.24-.57-4.45,0,0-12.77-1.89-14.17-2.74,0,0-1.26-1-2.62-2.21C340.46,617.84,338.67,616.05,338.88,615.38Z" transform="translate(-103.31 -146.28)"/><path class="cls-2" d="M338.82,614.34c.19-.6-11,.51-14.08.45a.71.71,0,0,0-.79.61c0,2.22,0,8.65.36,10.76a.92.92,0,0,0,.93.7c4.53.2,29.05,1.28,33.36,1.13a1.47,1.47,0,0,0,.86-.31c1-.8,3.53-3.24-.56-4.45,0,0-12.82-1.88-14.22-2.74,0,0-1.27-1-2.63-2.21C340.39,616.81,338.6,615,338.82,614.34Z" transform="translate(-103.31 -146.28)"/><ellipse class="cls-16" cx="239.21" cy="473.84" rx="0.73" ry="0.64"/><ellipse class="cls-16" cx="237.85" cy="472.59" rx="0.73" ry="0.64"/><ellipse class="cls-16" cx="236.49" cy="471.23" rx="0.73" ry="0.64"/><path class="cls-4" d="M354.1,628h.26c-.2-3.76,2.34-5.05,2.36-5.06l-.28,0C356.33,622.91,353.89,624.06,354.1,628Z" transform="translate(-103.31 -146.28)"/><path class="cls-12" d="M303.85,220.06c-2.58-1.89-9.74-5.86-14.18,4.14-.06.12.11.17.22.08,2.33-2.17,6.41-5.62,13.7-3.93C303.82,220.41,304,220.18,303.85,220.06Z" transform="translate(-103.31 -146.28)"/><path class="cls-12" d="M326.72,220.06c2.58-1.89,9.75-5.86,14.19,4.14,0,.12-.12.17-.22.08-2.34-2.17-6.41-5.62-13.71-3.93C326.76,220.41,326.55,220.18,326.72,220.06Z" transform="translate(-103.31 -146.28)"/><path class="cls-17" d="M276,250.5a6.42,6.42,0,0,1-1.13.1,4,4,0,0,1-1.74-7.59,4.43,4.43,0,0,0,1.16,8.73,5.14,5.14,0,0,0,2-.4Z" transform="translate(-103.31 -146.28)"/><path class="cls-17" d="M358.67,250.87a6.37,6.37,0,0,0,1.13.11,4,4,0,0,0,4.05-4,4,4,0,0,0-2.31-3.59,4.43,4.43,0,0,1-1.17,8.72,5.05,5.05,0,0,1-2-.39Z" transform="translate(-103.31 -146.28)"/></g></svg>