<svg xmlns="http://www.w3.org/2000/svg" viewBox="0 0 505 186"><title>lines</title><g id="wo_bist_du_" data-name="wo_bist_du?"><line x1="36.1" y1="155.4" x2="189.1" y2="27.4" style="fill:#fff"/><line x1="36.1" y1="155.4" x2="189.1" y2="27.4" style="fill:none;stroke:#4d4d4d;stroke-linecap:round;stroke-miterlimit:10;stroke-width:5px"/><path d="M44.6,165.5a13.2,13.2,0,1,1-16.9-20.2,13.2,13.2,0,0,1,16.9,20.2Z" style="fill:#4d4d4d"/><path d="M197.6,37.5A13.2,13.2,0,1,0,179,35.8,13.3,13.3,0,0,0,197.6,37.5Z" style="fill:#4d4d4d"/><line x1="315.9" y1="27.4" x2="468.9" y2="155.4" style="fill:#fff"/><line x1="315.9" y1="27.4" x2="468.9" y2="155.4" style="fill:none;stroke:#4d4d4d;stroke-linecap:round;stroke-miterlimit:10;stroke-width:5px"/><path d="M307.4,37.5A13.2,13.2,0,1,1,326,35.8,13.3,13.3,0,0,1,307.4,37.5Z" style="fill:#4d4d4d"/><path d="M460.4,165.5a13.2,13.2,0,1,0,16.9-20.2,13.2,13.2,0,0,0-16.9,20.2Z" style="fill:#4d4d4d"/></g></svg>