<svg xmlns="http://www.w3.org/2000/svg" viewBox="0 0 403.27 152.84"><defs><style>.cls-1,.cls-6{fill:#fff;}.cls-2,.cls-3,.cls-4,.cls-5{fill:none;stroke-linecap:round;stroke-width:7px;}.cls-2,.cls-4{stroke:#4db7a0;stroke-linejoin:round;}.cls-2,.cls-3{opacity:0.36;}.cls-3,.cls-5{stroke:#a63774;}.cls-3,.cls-5,.cls-6{stroke-miterlimit:10;}.cls-6{stroke:#000;stroke-width:1.46px;}</style></defs><title>logo_ebtwurf</title><g id="Layer_1" data-name="Layer 1"><path class="cls-1" d="M20.73,55.85H32.58c6.23,0,10.65,3.67,10.65,9.09,0,3.72-1.61,6.18-4.07,7.48a8.52,8.52,0,0,1,5,8.14c0,5.62-4.72,9.44-11.3,9.44H20.73Zm11.8,6.88H27.86v6.33h4.67c1.91,0,3.36-1,3.36-3.16S34.44,62.73,32.53,62.73Zm.35,13.21h-5v7.18h5c2.26,0,4-1.1,4-3.56S35.14,75.94,32.88,75.94Z"/><path class="cls-1" d="M70.64,82.72H58.44L55.88,90h-8L60.55,55.85h8L81.18,90h-8ZM59.29,45.21a3.6,3.6,0,0,1,3.62,3.72,3.64,3.64,0,1,1-7.28,0A3.63,3.63,0,0,1,59.29,45.21ZM60.8,75.84h7.53L64.56,65.19Zm9-30.63a3.6,3.6,0,0,1,3.66,3.72,3.64,3.64,0,1,1-7.28,0A3.63,3.63,0,0,1,69.84,45.21Z"/><path class="cls-1" d="M87.31,55.85h11.8c6.67,0,11.29,3.62,11.29,9.95,0,4.87-2.81,7.68-6.17,8.63,4.27,2.21,6.83,8.24,7.63,15.57h-7.38c-1.21-7.43-4.12-12.7-8.29-12.7H94.44V90H87.31Zm11.8,6.88H94.44v7.69h4.67a3.85,3.85,0,1,0,0-7.69Z"/><path class="cls-1" d="M119.79,55.85h6.08l15,21.75V55.85H148V90h-7.13L126.92,70.27V90h-7.13V60.12"/><path class="cls-1" d="M237.89,55.85h11.8c6.67,0,11.29,3.62,11.29,9.95,0,4.87-2.81,7.68-6.17,8.63,4.27,2.21,6.83,8.24,7.63,15.57h-7.38c-1.21-7.43-4.12-12.7-8.29-12.7H245V90h-7.13Zm11.8,6.88H245v7.69h4.67a3.85,3.85,0,1,0,0-7.69Z"/><path class="cls-1" d="M285.23,55.3a17.63,17.63,0,0,1,0,35.25,17.26,17.26,0,0,1-17.57-17.62A17.27,17.27,0,0,1,285.23,55.3Zm0,28.12A10.5,10.5,0,1,0,275,72.93,10.24,10.24,0,0,0,285.23,83.42Z"/><path class="cls-1" d="M310.74,90V55.85h7.13V83.12h12.3V90Z"/><path class="cls-1" d="M337.35,90V55.85h7.13V83.12h12.3V90Z"/><path class="cls-1" d="M367.12,62.73h-8.28V55.85h23.7v6.88h-8.29V90h-7.13Z"/><path class="cls-2" d="M209.57,45.21,185.38,68.28a4.49,4.49,0,0,0,0,6.31L194,83.32a4.5,4.5,0,0,1,0,6.29l-21.86,24.14"/><path class="cls-3" d="M238.38,39.1l-32,30.77a4.52,4.52,0,0,0,0,6.32l32.55,33"/><path class="cls-4" d="M197.31,56.9,185.38,68.28a4.49,4.49,0,0,0,0,6.31L194,83.32a4.5,4.5,0,0,1,0,6.29l-9.5,10.49"/><path class="cls-5" d="M221.8,54.86l-15.41,15a4.52,4.52,0,0,0,0,6.32l17,17.25"/><circle class="cls-6" cx="223.36" cy="53.54" r="4.01"/><circle class="cls-6" cx="198.55" cy="55.37" r="4.01"/><circle class="cls-6" cx="184.62" cy="99.84" r="4.01"/><circle class="cls-6" cx="225.52" cy="94.89" r="4.01"/></g></svg>